<?xml version="1.0" ?><svg height="15px" version="1.1" viewBox="0 0 22 15" width="22px" xmlns="http://www.w3.org/2000/svg" xmlns:sketch="http://www.bohemiancoding.com/sketch/ns" xmlns:xlink="http://www.w3.org/1999/xlink"><title/><defs/><g fill="none" fill-rule="evenodd" id="miu" stroke="none" stroke-width="1"><path d="M3.4375,13.9639007 C1.486375,13.6461296 0,11.9985269 0,10.0137931 C0,8.43895727 0.9356875,7.07641379 2.2969375,6.4221793 C2.146375,6.09172412 2.0625,5.72588689 2.0625,5.34068968 C2.0625,3.86599174 3.29381251,2.67034483 4.81250001,2.67034483 C5.6216875,2.67034483 6.34975,3.01014619 6.853,3.55022343 C7.9165625,1.44732688 10.143375,0 12.71875,0 C16.2889375,0 19.190875,2.78183174 19.248625,6.23592277 C20.851875,6.78534621 22,8.26939033 22,10.0137931 C22,11.9985269 20.513625,13.6461296 18.5625,13.9639007 L17.875,14.0193103 L4.12500001,14.0193103 L3.4375,13.9639007 Z M7,9.5 L8.9954834,9.5 L8.9954834,14 L12.9868164,14 L12.9868164,9.5 L15,9.5 L11,5 L7,9.5 Z" fill="#000000" id="cloud_cloud-upload_glyph"/></g></svg>